# Blender 3.5.0
# www.blender.org
mtllib spaceship.mtl
o Plane
v 0.000000 0.000000 0.000000
v -0.000000 0.000000 -2.000000
v 0.000000 0.000000 2.000000
v -3.000000 0.000000 0.000000
v 0.000000 1.000000 0.000000
v 1.000000 0.000000 2.000000
v 1.000000 0.000000 -2.000000
v 2.000000 0.000000 -2.400000
v 1.000000 0.500000 -1.500000
v 1.000000 0.500000 1.500000
v -0.000000 0.000000 -2.000000
v 2.000000 0.000000 -2.000000
v 2.000000 0.000000 2.400000
v 2.000000 0.000000 2.000000
v 2.000000 0.000000 -2.400000
v 4.000000 0.000000 -2.700000
v 4.000000 0.000000 2.700000
v 5.000000 0.000000 2.799999
v 5.000000 0.000000 -2.800000
v 4.000000 0.000000 -2.000000
v 4.000000 0.000000 2.000000
v 5.000000 0.000000 2.000000
v 5.000000 0.000000 -2.000000
v 3.600000 0.500000 1.500000
v 3.600000 0.500000 -1.500000
v 5.000000 0.500000 -2.000000
v 5.000000 0.500000 2.000000
v 4.000000 0.000000 2.000000
v 5.000000 0.000000 2.000000
v 3.600000 0.500000 1.500000
v 5.000000 0.500000 2.799999
v 5.000000 0.500000 -2.800000
v 4.000000 0.500000 2.500000
v 4.000000 0.500000 -2.500000
vn -0.0000 1.0000 -0.0000
vn 0.2857 -0.8571 -0.4286
vn 0.2857 -0.8571 0.4286
vn -0.0000 0.7071 0.7071
vn 0.2182 -0.8729 -0.4364
vn -0.0000 0.7071 -0.7071
vn -0.2182 0.8729 -0.4364
vn -0.0000 -1.0000 -0.0000
vn -0.2722 0.6804 -0.6804
vn -0.2722 0.6804 0.6804
vn -0.7809 -0.6247 -0.0000
vn -0.3363 -0.0000 -0.9417
vn 0.3363 -0.0000 -0.9417
vn 1.0000 -0.0000 -0.0000
vn -1.0000 -0.0000 -0.0000
vn -0.2957 0.3548 0.8870
vn -0.0829 0.8292 0.5528
vn -0.2683 0.3578 0.8944
vn 0.0995 -0.0000 -0.9950
vn -0.2683 0.3578 -0.8944
vn -0.0995 -0.0000 -0.9950
vn -0.2957 0.3548 -0.8870
vn 0.0829 -0.8292 0.5528
vn 0.1376 0.9905 -0.0000
vn -0.0000 0.9487 -0.3162
vn -0.0000 -0.9487 -0.3162
vt 0.000000 0.000000
vt 0.993256 0.800030
vt 0.147910 0.372365
vt 1.000000 0.000000
vt 0.000000 1.000000
vt 0.763995 0.482702
vt 0.411683 0.277263
vt 0.000000 0.251324
vt 0.721400 0.166143
vt 1.000000 1.000000
vt 0.000000 0.000000
vt 0.556839 0.492180
vt 0.721400 0.330030
vt 0.745645 0.529935
vt 0.115863 0.240620
vt 0.834337 0.403229
vt 0.993256 0.640964
vt 0.000000 0.000000
vt 0.411683 0.482702
vt 0.721400 0.180684
vt 0.000000 0.000000
vt 0.906348 0.428991
vt 0.000000 0.000000
vt 0.919521 0.166143
vt 0.974054 0.357590
vt 0.281246 0.534237
vt 0.633693 0.525503
vt 0.487306 0.344504
vt 0.896451 0.482702
vt 0.906348 0.368370
vt 0.244547 0.482702
vt 0.896451 0.670696
vt 1.000000 0.482702
vt 0.834337 0.166143
vt 0.000000 0.000000
vt 0.202144 0.205707
vt 0.763995 0.581021
vt 0.231726 0.229916
vt 0.834337 0.438834
vt 0.000000 0.000000
vt 0.940829 0.490705
vt 0.919521 0.275704
vt 0.330918 0.722627
vt 0.896451 0.602215
vt 0.834337 0.320160
vt 0.974054 0.166143
vt 0.411683 0.166143
vt 0.000000 0.000000
vt 0.754820 0.678377
vt 0.830810 0.738807
vt 0.000000 0.000000
vt 0.883332 0.477399
vt 0.892313 0.701197
vt 0.398861 0.677087
vt 0.802366 0.477399
vt 0.839465 0.368370
vt 1.000000 0.588210
vt 0.000000 0.000000
vt 0.103728 0.701908
vt 0.000000 0.000000
vt 0.000000 0.000000
vt 0.466170 0.722627
vt 1.000000 0.640964
vt 0.111820 0.749162
vt 0.802366 0.438834
vt 0.000000 0.000000
vt 0.000000 0.000000
vt 0.191860 0.677087
vt 0.171129 0.662310
vt 0.103728 0.766156
vt 0.191860 0.747941
vt 0.721400 0.438834
vt 0.103728 0.677087
vt 0.259130 0.677087
vt 0.000000 0.000000
vt 0.802366 0.438834
vt 0.769090 0.678327
vt 0.565620 0.677087
vt 0.000000 0.000000
vt 0.763995 0.715884
vt 0.000000 0.000000
vt 0.830810 0.678327
vt 0.883332 0.438834
vt 0.000000 0.000000
vt 0.830810 0.758686
vt 0.633693 0.677087
vt 0.468516 0.480511
vt 0.763995 0.606498
vt 0.802366 0.477399
vt 0.679568 0.726957
vt 0.830810 0.678327
vt 0.579881 0.731253
vt 0.721400 0.477399
vt 0.919521 0.367379
vt 0.330918 0.721982
vt 0.670393 0.676835
vt 0.896451 0.635883
vt 0.466170 0.731253
vt 0.918952 0.317303
vt 0.000000 0.677087
vt 0.000000 0.704990
vt 0.191860 0.721982
s 0
usemtl Material
f 1/1/1 2/4/1 4/10/1 3/5/1
f 4/9/2 5/13/2 3/7/2
f 4/10/3 2/4/3 5/11/3
f 6/14/4 10/27/4 3/6/4
f 5/13/5 10/28/5 3/7/5
f 7/16/6 11/30/6 9/22/6
f 5/12/7 9/26/7 11/31/7
f 1/3/1 3/8/1 6/15/1
f 1/2/8 11/32/8 7/17/8
f 6/15/1 7/19/1 1/3/1
f 8/21/8 12/35/8 7/18/8
f 13/36/1 14/38/1 6/15/1
f 9/23/9 8/21/9 7/18/9
f 10/27/10 6/14/10 13/37/10
f 12/33/1 20/57/1 15/41/1
f 15/41/1 20/57/1 16/44/1
f 19/54/8 23/62/8 16/43/8
f 20/57/1 23/63/1 16/44/1
f 14/38/1 13/36/1 17/47/1
f 21/60/1 14/40/1 17/48/1
f 22/61/1 21/60/1 17/48/1
f 17/48/1 18/51/1 22/61/1
f 7/19/1 6/15/1 14/38/1
f 12/34/8 14/39/8 7/20/8
f 14/40/1 21/60/1 12/35/1
f 12/35/1 21/60/1 20/58/1
f 20/58/11 24/66/11 25/67/11
f 21/60/11 24/66/11 20/58/11
f 23/64/12 25/68/12 26/71/12
f 20/59/6 25/68/6 23/64/6
f 22/61/13 24/66/13 27/75/13
f 24/66/1 22/61/1 29/81/1 30/84/1
f 24/66/1 21/60/1 28/79/1 30/84/1
f 21/60/1 22/61/1 29/81/1 28/79/1
f 29/82/4 30/85/4 28/80/4
f 23/65/14 19/55/14 26/72/14
f 29/83/15 18/52/15 27/76/15
f 31/89/15 27/76/15 18/52/15
f 32/93/14 26/72/14 19/55/14
f 33/96/16 10/27/16 17/49/16
f 13/37/17 17/49/17 10/27/17
f 31/90/18 33/96/18 17/49/18
f 17/50/19 31/91/19 18/53/19
f 34/99/20 32/94/20 16/45/20
f 16/45/21 32/94/21 19/56/21
f 9/24/22 34/99/22 16/45/22
f 16/46/23 9/25/23 15/42/23
f 25/69/24 5/12/24 30/86/24
f 5/12/25 25/69/25 9/26/25
f 10/28/26 5/13/26 30/87/26
f 10/29/1 33/97/1 30/88/1
f 9/26/1 25/69/1 34/100/1
f 25/70/8 34/101/8 26/73/8
f 32/95/1 34/102/1 26/74/1
f 27/77/1 30/88/1 33/97/1
f 31/92/8 33/98/8 27/78/8
l 1 5
l 2 11
l 8 15
l 10 24
